HIERARCHY
ROOT root
{
	OFFSET	0	13.1	24.9
	CHANNELS 6  Xposition Yposition Zposition Xrotation Yrotation Zrotation
	JOINT spine_1
	{
		OFFSET	0	9.99999	0
		CHANNELS 3  Xrotation Yrotation Zrotation
		JOINT spine_2
		{
			OFFSET	0	112	-10
			CHANNELS 3  Xrotation Yrotation Zrotation
			JOINT spine_3
			{
				OFFSET	0	206.5	19.3
				CHANNELS 3  Xrotation Yrotation Zrotation
				JOINT spine_4
				{
					OFFSET	0	110.4	14.6
					CHANNELS 3  Xrotation Yrotation Zrotation
					JOINT neck_1
					{
						OFFSET	0	71.8	-50.3
						CHANNELS 3  Xrotation Yrotation Zrotation
						JOINT neck_2
						{
							OFFSET	0	86.2	-25.8
							CHANNELS 3  Xrotation Yrotation Zrotation
							JOINT head_ee
							{
								OFFSET	0	179.8	-8.7
								CHANNELS 3  Xrotation Yrotation Zrotation
								End Site
								{
									OFFSET	1	0	0
								}
							}
						}
					}
					JOINT left_clavicle
					{
						OFFSET	-43.2	22.4	-70.8
						CHANNELS 3  Xrotation Yrotation Zrotation
						JOINT left_shoulder
						{
							OFFSET	-93.9	-5.79999	48.7
							CHANNELS 3  Xrotation Yrotation Zrotation
							JOINT left_elbow
							{
								OFFSET	-291.4	-30.8	15.2
								CHANNELS 3  Xrotation Yrotation Zrotation
								JOINT left_lowarm_twist
								{
									OFFSET	-110.7	-3.89999	13.6
									CHANNELS 3  Xrotation Yrotation Zrotation
									JOINT left_hand
									{
										OFFSET	-110.7	-3.89999	13.6
										CHANNELS 3  Xrotation Yrotation Zrotation
										JOINT left_ee
										{
											OFFSET	-80.8	-5.10001	12.1
											CHANNELS 3  Xrotation Yrotation Zrotation
											End Site
											{
												OFFSET	1	0	0
											}
										}
									}
								}
							}
						}
					}
					JOINT right_clavicle
					{
						OFFSET	43.2	22.4	-70.8
						CHANNELS 3  Xrotation Yrotation Zrotation
						JOINT right_shoulder
						{
							OFFSET	93.9	-5.79999	48.7
							CHANNELS 3  Xrotation Yrotation Zrotation
							JOINT right_elbow
							{
								OFFSET	291.4	-30.8	15.2
								CHANNELS 3  Xrotation Yrotation Zrotation
								JOINT right_lowarm_twist
								{
									OFFSET	110.7	-3.89999	13.6
									CHANNELS 3  Xrotation Yrotation Zrotation
									JOINT right_hand
									{
										OFFSET	110.7	-3.89999	13.6
										CHANNELS 3  Xrotation Yrotation Zrotation
										JOINT right_ee
										{
											OFFSET	80.8	-5.10001	12.1
											CHANNELS 3  Xrotation Yrotation Zrotation
											End Site
											{
												OFFSET	1	0	0
											}
										}
									}
								}
							}
						}
					}
				}
			}
		}
	}
	JOINT left_hip
	{
		OFFSET	-82.8	-127.5	0.300001
		CHANNELS 3  Xrotation Yrotation Zrotation
		JOINT left_knee
		{
			OFFSET	-28.2	-396.7	2.2
			CHANNELS 3  Xrotation Yrotation Zrotation
			JOINT left_ankle
			{
				OFFSET	-11.7	-411.3	35.4
				CHANNELS 3  Xrotation Yrotation Zrotation
				JOINT left_toes
				{
					OFFSET	0	-60	-88.6
					CHANNELS 3  Xrotation Yrotation Zrotation
					JOINT left_foot_ee
					{
						OFFSET	-22.5	-16.5	-42.2
						CHANNELS 3  Xrotation Yrotation Zrotation
						End Site
						{
							OFFSET	1	0	0
						}
					}
				}
			}
		}
	}
	JOINT right_hip
	{
		OFFSET	82.8	-127.5	0.300001
		CHANNELS 3  Xrotation Yrotation Zrotation
		JOINT right_knee
		{
			OFFSET	28.2	-396.7	2.2
			CHANNELS 3  Xrotation Yrotation Zrotation
			JOINT right_ankle
			{
				OFFSET	11.7	-411.3	35.4
				CHANNELS 3  Xrotation Yrotation Zrotation
				JOINT right_toes
				{
					OFFSET	0	-60	-88.6
					CHANNELS 3  Xrotation Yrotation Zrotation
					JOINT right_foot_ee
					{
						OFFSET	22.5	-16.5	-42.2
						CHANNELS 3  Xrotation Yrotation Zrotation
						End Site
						{
							OFFSET	1	0	0
						}
					}
				}
			}
		}
	}
}
MOTION
Frames: 14
Frame Time: 0.02
2800.94 716.97 -1473.77 120.878563503 80.1257556445 -116.389098137 -2.03679 -0.541246 -2.43063 -2.03358 -0.38553 -2.46012 -2.01321 0.227412 -2.47973 -2.02175 -0.166945 -2.48453 -5.46897 0.0770305 2.3657 -5.45161 -1.62069 2.41381 -0.0 0.0 -0.0 4.1153 -7.59405 7.50818 19.2679 -27.3418 70.2184 2.50832 -51.1648 1.20099 -54.7912 -4.643 4.90973 6.43517 12.7893 54.5484 -0.0 0.0 -0.0 -2.87415 -15.072 2.83748 -6.158 35.0747 -73.451 0.390051 10.9361 -0.0373383 40.7284 0.387692 5.08033 0.400559 -0.80882 -3.01097 0.0 0.0 0.0 -13.7227 26.8279 -10.9533 -22.1027 0.264734 3.36051 37.2801 -6.71426 -4.71699 -0.930644 0.0 0.0 -0.0 0.0 -0.0 23.2606 47.8831 -12.472 -5.43376 -0.185279 -0.813028 33.7272 -25.777 4.54703 -40.1409 0.0 0.0 0.0 0.0 0.0 
2768.938049 716.793 -1479.62172905 110.530915945 79.2464412787 -106.689421788 -2.22257 -0.453605 -2.01143 -2.22038 -0.324721 -2.0362 -2.20609 0.189679 -2.05318 -2.21195 -0.136892 -2.05737 -3.98465 0.557844 0.921823 -3.98237 0.313346 1.03747 -0.0 0.0 -0.0 4.66875 -7.21297 8.66711 19.1728 -27.557 70.7234 1.26189 -32.0083 0.361954 -56.8104 -4.88896 4.99086 6.53824 11.4155 55.2883 -0.0 0.0 -0.0 -2.31919 -14.6777 2.01256 -4.853 36.4389 -74.3839 0.388406 10.8911 -0.0370269 39.4297 0.319931 4.92868 0.530114 0.181675 -3.46734 0.0 0.0 0.0 -9.37317 19.7554 -13.1431 -42.3432 -0.622532 6.32316 34.6869 -1.68788 -4.40333 2.24573 -0.0 -0.0 -0.0 0.0 -0.0 20.2163 47.5211 -12.9772 -5.89131 -0.197342 -0.882209 37.8392 -23.6312 4.91504 -40.2305 0.0 0.0 0.0 0.0 0.0 
2769.06899311 716.793 -1480.29736708 104.331463485 79.6100783975 -100.383168418 -2.22257 -0.453605 -2.01143 -2.22038 -0.324721 -2.0362 -2.20609 0.189679 -2.05318 -2.21195 -0.136892 -2.05737 -3.98465 0.557844 0.921823 -3.98237 0.313346 1.03747 -0.0 0.0 -0.0 4.66875 -7.21297 8.66711 19.1728 -27.557 70.7234 1.26189 -32.0083 0.361954 -56.8104 -4.88896 4.99086 6.53824 11.4155 55.2883 -0.0 0.0 -0.0 -2.31919 -14.6777 2.01256 -4.853 36.4389 -74.3839 0.388406 10.8911 -0.0370269 39.4297 0.319931 4.92868 0.530114 0.181675 -3.46734 0.0 0.0 0.0 -9.37317 19.7554 -13.1431 -42.3432 -0.622532 6.32316 34.6869 -1.68788 -4.40333 2.24573 -0.0 -0.0 -0.0 0.0 -0.0 20.2163 47.5211 -12.9772 -5.89131 -0.197342 -0.882209 37.8392 -23.6312 4.91504 -40.2305 0.0 0.0 0.0 0.0 0.0 
2769.17247999 716.793 -1480.78372035 99.6155216048 79.7919163103 -95.5900950704 -2.22257 -0.453605 -2.01143 -2.22038 -0.324721 -2.0362 -2.20609 0.189679 -2.05318 -2.21195 -0.136892 -2.05737 -3.98465 0.557844 0.921823 -3.98237 0.313346 1.03747 -0.0 0.0 -0.0 4.66875 -7.21297 8.66711 19.1728 -27.557 70.7234 1.26189 -32.0083 0.361954 -56.8104 -4.88896 4.99086 6.53824 11.4155 55.2883 -0.0 0.0 -0.0 -2.31919 -14.6777 2.01256 -4.853 36.4389 -74.3839 0.388406 10.8911 -0.0370269 39.4297 0.319931 4.92868 0.530114 0.181675 -3.46734 0.0 0.0 0.0 -9.37317 19.7554 -13.1431 -42.3432 -0.622532 6.32316 34.6869 -1.68788 -4.40333 2.24573 -0.0 -0.0 -0.0 0.0 -0.0 20.2163 47.5211 -12.9772 -5.89131 -0.197342 -0.882209 37.8392 -23.6312 4.91504 -40.2305 0.0 0.0 0.0 0.0 0.0 
2769.29520424 716.793 -1481.31814562 94.2584631603 79.9086853278 -90.1479993965 -2.22257 -0.453605 -2.01143 -2.22038 -0.324721 -2.0362 -2.20609 0.189679 -2.05318 -2.21195 -0.136892 -2.05737 -3.98465 0.557844 0.921823 -3.98237 0.313346 1.03747 -0.0 0.0 -0.0 4.66875 -7.21297 8.66711 19.1728 -27.557 70.7234 1.26189 -32.0083 0.361954 -56.8104 -4.88896 4.99086 6.53824 11.4155 55.2883 -0.0 0.0 -0.0 -2.31919 -14.6777 2.01256 -4.853 36.4389 -74.3839 0.388406 10.8911 -0.0370269 39.4297 0.319931 4.92868 0.530114 0.181675 -3.46734 0.0 0.0 0.0 -9.37317 19.7554 -13.1431 -42.3432 -0.622532 6.32316 34.6869 -1.68788 -4.40333 2.24573 -0.0 -0.0 -0.0 0.0 -0.0 20.2163 47.5211 -12.9772 -5.89131 -0.197342 -0.882209 37.8392 -23.6312 4.91504 -40.2305 0.0 0.0 0.0 0.0 0.0 
2743.98243326 718.483 -1483.73562464 101.995913999 78.9596449569 -98.3415158131 -2.33965 -0.410872 -1.86107 -2.33777 -0.291636 -1.88343 -2.32578 0.187866 -1.89659 -2.33078 -0.113967 -1.90246 -3.73698 0.227057 -0.0558294 -3.73689 0.457335 -0.0223901 -0.0 0.0 -0.0 4.60217 -6.98956 8.54356 16.3573 -27.2237 71.1956 0.992268 -26.1755 0.23069 -56.8042 -4.88819 4.99062 6.56455 11.1439 55.5027 -0.0 0.0 -0.0 -1.99394 -13.7289 1.64407 -3.20923 36.4945 -74.927 0.399964 11.2071 -0.0392421 39.6136 0.329317 4.95024 0.324509 -0.223771 -2.26063 0.0 0.0 0.0 -6.25306 16.1658 -12.803 -53.8303 -1.57187 7.81163 36.9205 -0.602142 -4.60569 2.70535 -0.0 -0.0 -0.0 0.0 -0.0 17.4339 47.2144 -12.9247 -6.3037 -0.207742 -0.944641 39.6981 -22.0197 5.0509 -40.2175 0.0 0.0 0.0 0.0 0.0 
2731.07957832 721.155 -1482.46343011 102.924890743 78.7872105279 -99.8730068434 -2.55924 -0.45864 -1.56524 -2.55795 -0.358123 -1.59124 -2.54609 0.0567511 -1.63005 -2.54974 -0.201362 -1.61856 -3.25338 0.183787 -0.0148281 -3.25333 0.345954 0.0119145 -0.0 0.0 -0.0 4.45166 -6.848 8.24387 14.4284 -26.8746 71.3076 0.859817 -23.0703 0.175484 -56.9435 -4.90527 4.9959 6.56946 11.1439 55.5616 -0.0 0.0 -0.0 -1.68629 -13.3062 1.20631 -1.82107 36.6188 -75.3654 0.481757 13.4227 -0.0566904 39.6064 0.328947 4.9494 0.489996 0.160601 -3.20755 0.0 0.0 0.0 -6.43987 14.7519 -11.4879 -55.2232 -1.70685 7.97855 37.2656 -1.80531 -4.64857 3.61715 -0.0 -0.0 -0.0 0.0 -0.0 15.9558 47.0103 -12.1253 -6.40717 -0.21028 -0.960317 40.3984 -23.8261 5.16875 -40.1437 0.0 0.0 0.0 0.0 0.0 
2715.50166178 725.475 -1482.61009941 112.249352899 78.2948054846 -109.411775868 -2.67792 -0.467216 -1.54964 -2.67666 -0.367675 -1.57622 -2.66461 0.0470477 -1.61784 -2.66821 -0.209017 -1.60497 -3.1853 0.0288996 -0.0557306 -3.18529 0.0958744 -0.053589 -0.0 0.0 -0.0 4.30406 -6.07019 7.98926 12.4721 -26.7346 72.0562 0.731363 -19.9152 0.128403 -56.9565 -4.90687 4.99639 6.54251 11.0117 55.1904 -0.0 0.0 -0.0 -1.11194 -12.6944 0.347414 0.212872 36.3709 -75.9607 0.498799 13.8794 -0.0607125 40.1573 0.357471 5.01383 0.43439 0.147808 -2.84082 0.0 0.0 0.0 -6.21782 11.6303 -11.1466 -57.6211 -1.94866 8.25816 36.4425 -0.854993 -4.56333 1.7585 -0.0 -0.0 -0.0 0.0 -0.0 14.283 46.6834 -11.6811 -5.27184 -0.180877 -0.788569 40.6096 -23.9625 5.19283 -40.1662 0.0 0.0 0.0 0.0 0.0 
2694.73371735 726.305 -1484.53508155 120.285304461 77.387819385 -117.534923007 -2.65656 -0.530224 -1.58946 -2.65525 -0.428022 -1.61997 -2.64107 -0.000838853 -1.67554 -2.64489 -0.265412 -1.65439 -2.71852 0.036345 -0.216324 -2.71834 0.235388 -0.220554 -0.0 0.0 -0.0 4.15436 -5.65529 7.71032 9.15341 -26.1781 72.0934 0.642593 -17.6575 0.0998099 -56.7294 -4.87903 4.98777 6.61817 10.9152 56.0639 -0.0 0.0 -0.0 -0.770404 -11.3438 -0.03759 2.49438 36.9113 -76.0941 0.604178 16.6621 -0.0884754 39.8389 0.34091 4.97662 0.430017 0.179393 -2.79846 0.0 0.0 0.0 -6.22734 6.90446 -9.70094 -58.6291 -2.05378 8.37268 37.624 -0.629676 -4.67055 4.26306 -0.0 -0.0 -0.0 0.0 -0.0 12.6808 46.1242 -11.4986 -4.33739 -0.154125 -0.647657 41.2609 -24.2356 5.26227 -40.1655 0.0 0.0 0.0 0.0 0.0 
2675.80197902 729.013 -1480.14945313 125.927140666 76.2243359268 -123.837124645 -2.6975 -0.468097 -1.36083 -2.69655 -0.380563 -1.38785 -2.68578 -0.0129961 -1.43902 -2.68859 -0.240076 -1.41891 -2.64666 0.0269407 -0.203032 -2.6465 0.208092 -0.208205 -0.0 0.0 -0.0 3.98866 -4.69254 7.43417 5.88921 -25.5786 72.634 0.497962 -13.857 0.060512 -56.8359 -4.89208 4.99183 6.61849 10.8428 56.0402 -0.0 0.0 -0.0 -0.306436 -10.6317 -0.734689 3.61509 36.9749 -76.0162 0.717079 19.5561 -0.123579 40.0801 0.353435 5.00482 0.418711 0.156881 -2.73218 0.0 0.0 0.0 -5.67292 7.21032 -9.5706 -58.9545 -2.08816 8.40926 37.5281 -0.397137 -4.6599 3.93039 -0.0 -0.0 -0.0 0.0 -0.0 10.0302 45.3368 -10.9108 -3.48318 -0.12766 -0.519233 42.2991 -24.3891 5.36251 -39.9415 0.0 0.0 0.0 0.0 0.0 
2675.90851916 729.013 -1481.97673599 123.061967055 76.6984963371 -120.890120264 -2.6975 -0.468097 -1.36083 -2.69655 -0.380563 -1.38785 -2.68578 -0.0129961 -1.43902 -2.68859 -0.240076 -1.41891 -2.64666 0.0269407 -0.203032 -2.6465 0.208092 -0.208205 -0.0 0.0 -0.0 3.98866 -4.69254 7.43417 5.88921 -25.5786 72.634 0.497962 -13.857 0.060512 -56.8359 -4.89208 4.99183 6.61849 10.8428 56.0402 -0.0 0.0 -0.0 -0.306436 -10.6317 -0.734689 3.61509 36.9749 -76.0162 0.717079 19.5561 -0.123579 40.0801 0.353435 5.00482 0.418711 0.156881 -2.73218 0.0 0.0 0.0 -5.67292 7.21032 -9.5706 -58.9545 -2.08816 8.40926 37.5281 -0.397137 -4.6599 3.93039 -0.0 -0.0 -0.0 0.0 -0.0 10.0302 45.3368 -10.9108 -3.48318 -0.12766 -0.519233 42.2991 -24.3891 5.36251 -39.9415 0.0 0.0 0.0 0.0 0.0 
2652.71620087 734.123 -1476.27147812 127.094454574 75.7330321961 -125.091568772 -2.83646 -0.491326 -1.34714 -2.83554 -0.404617 -1.37566 -2.82424 -0.0359107 -1.43347 -2.82702 -0.261827 -1.40982 -2.05116 0.303289 -0.197804 -2.05073 0.704524 -0.167717 -0.0 0.0 -0.0 3.82894 -3.69905 7.1745 1.55474 -25.0481 72.6648 0.438322 -12.2508 0.0470397 -56.8342 -4.89187 4.99176 6.62782 10.6865 56.0933 -0.0 0.0 -0.0 0.182852 -10.1443 -1.51573 3.98715 36.9356 -74.9956 0.843041 22.6661 -0.168965 40.3725 0.368777 5.03892 0.482182 0.556153 -2.99132 0.0 0.0 0.0 -5.10805 6.66508 -9.59951 -58.0391 -1.992 8.30587 37.5302 -0.127093 -4.65799 4.1672 -0.0 -0.0 -0.0 0.0 -0.0 7.06586 44.1237 -10.3401 -2.12433 -0.08162 -0.315777 42.1631 -24.8391 5.36527 -39.9493 0.0 0.0 0.0 0.0 0.0 
2641.33291328 739.014 -1475.01878288 130.576575397 75.4958275436 -128.790542774 -2.93321 -0.506477 -1.26732 -2.93241 -0.424814 -1.29698 -2.92133 -0.0734272 -1.36279 -2.92381 -0.287713 -1.3341 -1.63733 0.276567 -0.0477198 -1.63715 0.536281 -0.0152625 -0.0 0.0 -0.0 3.52418 -2.95818 6.61442 -0.852291 -24.4945 72.784 0.383745 -10.7635 0.0361512 -56.7872 -4.88611 4.98997 6.62449 10.4751 55.9702 -0.0 0.0 -0.0 0.62203 -9.48908 -2.20341 4.54563 36.9058 -74.3322 0.958825 25.4061 -0.216139 40.7432 0.388482 5.08205 0.519306 0.564322 -3.23658 0.0 0.0 0.0 -4.21365 7.19551 -9.18964 -57.559 -1.94225 8.25105 38.162 -0.0657828 -4.71479 4.04134 -0.0 -0.0 -0.0 0.0 -0.0 5.25953 43.6916 -9.24173 -0.0556596 -0.00228795 -0.00823505 42.0931 -25.3048 5.37491 -39.964 0.0 0.0 0.0 0.0 0.0 
2641.47334719 739.014 -1480.57942225 124.158453944 76.709738561 -122.179678937 -2.93321 -0.506477 -1.26732 -2.93241 -0.424814 -1.29698 -2.92133 -0.0734272 -1.36279 -2.92381 -0.287713 -1.3341 -1.63733 0.276567 -0.0477198 -1.63715 0.536281 -0.0152625 -0.0 0.0 -0.0 3.52418 -2.95818 6.61442 -0.852291 -24.4945 72.784 0.383745 -10.7635 0.0361512 -56.7872 -4.88611 4.98997 6.62449 10.4751 55.9702 -0.0 0.0 -0.0 0.62203 -9.48908 -2.20341 4.54563 36.9058 -74.3322 0.958825 25.4061 -0.216139 40.7432 0.388482 5.08205 0.519306 0.564322 -3.23658 0.0 0.0 0.0 -4.21365 7.19551 -9.18964 -57.559 -1.94225 8.25105 38.162 -0.0657828 -4.71479 4.04134 -0.0 -0.0 -0.0 0.0 -0.0 5.25953 43.6916 -9.24173 -0.0556596 -0.00228795 -0.00823505 42.0931 -25.3048 5.37491 -39.964 0.0 0.0 0.0 0.0 0.0 
